<svg width="60" height="60" viewBox="0 0 60 60" fill="none" xmlns="http://www.w3.org/2000/svg">
<g clip-path="url(#clip0_19_4)">
<path d="M41.25 22.5C41.25 25.4837 40.0647 28.3452 37.955 30.455C35.8452 32.5647 32.9837 33.75 30 33.75C27.0163 33.75 24.1548 32.5647 22.045 30.455C19.9353 28.3452 18.75 25.4837 18.75 22.5C18.75 19.5163 19.9353 16.6548 22.045 14.545C24.1548 12.4353 27.0163 11.25 30 11.25C32.9837 11.25 35.8452 12.4353 37.955 14.545C40.0647 16.6548 41.25 19.5163 41.25 22.5Z" fill="#333333"/>
<path d="M7.5 0C5.51088 0 3.60322 0.790176 2.1967 2.1967C0.790176 3.60322 0 5.51088 0 7.5L0 52.5C0 54.4891 0.790176 56.3968 2.1967 57.8033C3.60322 59.2098 5.51088 60 7.5 60H52.5C54.4891 60 56.3968 59.2098 57.8033 57.8033C59.2098 56.3968 60 54.4891 60 52.5V7.5C60 5.51088 59.2098 3.60322 57.8033 2.1967C56.3968 0.790176 54.4891 0 52.5 0L7.5 0ZM52.5 3.75C53.4946 3.75 54.4484 4.14509 55.1516 4.84835C55.8549 5.55161 56.25 6.50544 56.25 7.5V52.5C56.25 53.4946 55.8549 54.4484 55.1516 55.1516C54.4484 55.8549 53.4946 56.25 52.5 56.25V52.5C52.5 48.75 48.75 37.5 30 37.5C11.25 37.5 7.5 48.75 7.5 52.5V56.25C6.50544 56.25 5.55161 55.8549 4.84835 55.1516C4.14509 54.4484 3.75 53.4946 3.75 52.5V7.5C3.75 6.50544 4.14509 5.55161 4.84835 4.84835C5.55161 4.14509 6.50544 3.75 7.5 3.75H52.5Z" fill="#333333"/>
</g>
<defs>
<clipPath id="clip0_19_4">
<rect width="60" height="60" fill="white"/>
</clipPath>
</defs>
</svg>
