<svg width="94" height="94" viewBox="0 0 94 94" fill="none" xmlns="http://www.w3.org/2000/svg">
<path d="M82.25 72.4583C82.25 77.8672 77.8672 82.25 72.4583 82.25H21.5417C16.1347 82.25 11.75 77.8672 11.75 72.4583V21.5417C11.75 16.1328 16.1347 11.75 21.5417 11.75H72.4583C77.8672 11.75 82.25 16.1328 82.25 21.5417V72.4583Z" fill="#1976D2"/>
<path d="M70.3766 35.3304C70.4667 35.0347 70.5098 34.7605 70.498 34.5157C70.4687 33.8068 69.981 33.2917 68.8335 33.2917H63.7065C62.4121 33.2917 61.8148 34.0751 61.4662 34.8604C61.4662 34.8604 58.2702 41.4384 54.5866 45.7761C53.392 47.0314 52.7849 47.0001 52.1387 47.0001C51.792 47.0001 50.9167 46.581 50.9167 45.4315V35.2775C50.9167 33.9184 50.5779 33.2917 49.4832 33.2917H40.3789C39.5818 33.2917 39.1667 33.9184 39.1667 34.547C39.1667 35.8532 40.9252 36.1666 41.125 39.8267V46.9217C41.125 48.6451 40.8254 48.9584 40.1791 48.9584C38.4362 48.9584 35.0052 43.0834 32.7081 35.3832C32.2107 33.8675 31.7132 33.2917 30.4188 33.2917H25.2429C23.7487 33.2917 23.5 34.0242 23.5 34.8075C23.5 36.2195 24.675 43.853 31.0885 52.6303C35.7396 58.9949 41.8672 62.6667 47.2918 62.6667C50.5779 62.6667 50.9147 61.8305 50.9147 60.5243V54.7042C50.9167 53.1355 51.275 52.8751 52.3208 52.8751C53.0669 52.8751 54.5885 53.3647 57.526 56.7917C60.914 60.7437 61.5289 62.6667 63.4715 62.6667H68.5985C69.7891 62.6667 70.4726 62.1674 70.5 61.198C70.5059 60.9512 70.4706 60.6751 70.3903 60.3677C70.0104 59.2397 68.2675 56.4823 66.0938 53.8542C64.8894 52.3992 63.7007 50.9579 63.1543 50.1745C62.7881 49.6634 62.649 49.3031 62.6667 48.9584C62.6843 48.5961 62.8723 48.2515 63.1543 47.7697C63.1034 47.7697 69.7304 38.4657 70.3766 35.3304Z" fill="white"/>
</svg>
