<svg width="81" height="86" viewBox="0 0 81 86" fill="none" xmlns="http://www.w3.org/2000/svg">
<path d="M40.7582 10.7446H41.2088C45.3701 10.7608 66.4554 10.922 72.1406 12.5453C73.8593 13.0407 75.4254 14.0063 76.6825 15.3457C77.9396 16.685 78.8435 18.3512 79.3041 20.1778C79.8154 22.2203 80.1748 24.9239 80.4178 27.7135L80.4684 28.2725L80.5798 29.67L80.6203 30.229C80.9494 35.1418 80.9899 39.7428 80.9949 40.7479V41.151C80.9899 42.1938 80.9443 47.1065 80.5798 52.2235L80.5393 52.7879L80.4938 53.3469C80.2406 56.4214 79.866 59.4744 79.3041 61.7211C78.8435 63.5476 77.9396 65.2138 76.6825 66.5532C75.4254 67.8926 73.8593 68.8582 72.1406 69.3536C66.2681 71.0306 43.9476 71.1489 40.8544 71.1543H40.1355C38.5712 71.1543 32.1013 71.122 25.3176 70.8748L24.4569 70.8425L24.0165 70.821L23.1508 70.7834L22.2851 70.7458C16.6658 70.4824 11.3147 70.0578 8.84925 69.3483C7.13117 68.8533 5.56546 67.8885 4.30845 66.5501C3.05144 65.2117 2.14712 63.5467 1.68581 61.7211C1.12388 59.4798 0.74925 56.4214 0.496125 53.3469L0.455625 52.7825L0.415125 52.2235C0.16384 48.5815 0.02539 44.9317 0 41.28L0 40.6189C0.010125 39.4633 0.050625 35.4696 0.324 31.0621L0.359438 30.5085L0.374625 30.229L0.415125 29.67L0.5265 28.2725L0.577125 27.7135C0.820125 24.9239 1.17956 22.2149 1.69087 20.1778C2.15141 18.3512 3.05538 16.685 4.31244 15.3457C5.5695 14.0063 7.13563 13.0407 8.85431 12.5453C11.3197 11.8465 16.6708 11.4165 22.2902 11.1478L23.1508 11.1101L24.0216 11.0779L24.4569 11.0618L25.3226 11.0241C30.1406 10.8597 34.9606 10.7683 39.7811 10.75L40.7582 10.7446ZM32.4 27.9984V53.8951L53.4448 40.9521L32.4 27.9984Z" fill="#E20000"/>
</svg>
